<svg xmlns="http://www.w3.org/2000/svg" width="692" height="150" viewBox="0 0 692 150" role="img" fill="none">
<rect x="0.5" y="0.5" width="691" height="149" rx="8" fill="#0d1117" stroke="#30363d"/>
<text x="28" y="34" fill="#e6edf3" font-family="Segoe UI,Helvetica,Arial,sans-serif" font-size="17" font-weight="700">Contribution activity · last year</text>
<rect x="28" y="56" width="9" height="9" rx="2" fill="#161b22"/>
<rect x="28" y="68" width="9" height="9" rx="2" fill="#161b22"/>
<rect x="28" y="80" width="9" height="9" rx="2" fill="#161b22"/>
<rect x="28" y="92" width="9" height="9" rx="2" fill="#161b22"/>
<rect x="28" y="104" width="9" height="9" rx="2" fill="#161b22"/>
<rect x="28" y="116" width="9" height="9" rx="2" fill="#161b22"/>
<rect x="28" y="128" width="9" height="9" rx="2" fill="#161b22"/>
<rect x="40" y="56" width="9" height="9" rx="2" fill="#161b22"/>
<rect x="40" y="68" width="9" height="9" rx="2" fill="#161b22"/>
<rect x="40" y="80" width="9" height="9" rx="2" fill="#161b22"/>
<rect x="40" y="92" width="9" height="9" rx="2" fill="#161b22"/>
<rect x="40" y="104" width="9" height="9" rx="2" fill="#161b22"/>
<rect x="40" y="116" width="9" height="9" rx="2" fill="#161b22"/>
<rect x="40" y="128" width="9" height="9" rx="2" fill="#161b22"/>
<rect x="52" y="56" width="9" height="9" rx="2" fill="#161b22"/>
<rect x="52" y="68" width="9" height="9" rx="2" fill="#161b22"/>
<rect x="52" y="80" width="9" height="9" rx="2" fill="#161b22"/>
<rect x="52" y="92" width="9" height="9" rx="2" fill="#161b22"/>
<rect x="52" y="104" width="9" height="9" rx="2" fill="#161b22"/>
<rect x="52" y="116" width="9" height="9" rx="2" fill="#161b22"/>
<rect x="52" y="128" width="9" height="9" rx="2" fill="#161b22"/>
<rect x="64" y="56" width="9" height="9" rx="2" fill="#161b22"/>
<rect x="64" y="68" width="9" height="9" rx="2" fill="#161b22"/>
<rect x="64" y="80" width="9" height="9" rx="2" fill="#161b22"/>
<rect x="64" y="92" width="9" height="9" rx="2" fill="#161b22"/>
<rect x="64" y="104" width="9" height="9" rx="2" fill="#161b22"/>
<rect x="64" y="116" width="9" height="9" rx="2" fill="#0e4429"/>
<rect x="64" y="128" width="9" height="9" rx="2" fill="#0e4429"/>
<rect x="76" y="56" width="9" height="9" rx="2" fill="#0e4429"/>
<rect x="76" y="68" width="9" height="9" rx="2" fill="#0e4429"/>
<rect x="76" y="80" width="9" height="9" rx="2" fill="#161b22"/>
<rect x="76" y="92" width="9" height="9" rx="2" fill="#0e4429"/>
<rect x="76" y="104" width="9" height="9" rx="2" fill="#0e4429"/>
<rect x="76" y="116" width="9" height="9" rx="2" fill="#161b22"/>
<rect x="76" y="128" width="9" height="9" rx="2" fill="#0e4429"/>
<rect x="88" y="56" width="9" height="9" rx="2" fill="#161b22"/>
<rect x="88" y="68" width="9" height="9" rx="2" fill="#0e4429"/>
<rect x="88" y="80" width="9" height="9" rx="2" fill="#0e4429"/>
<rect x="88" y="92" width="9" height="9" rx="2" fill="#161b22"/>
<rect x="88" y="104" width="9" height="9" rx="2" fill="#161b22"/>
<rect x="88" y="116" width="9" height="9" rx="2" fill="#0e4429"/>
<rect x="88" y="128" width="9" height="9" rx="2" fill="#161b22"/>
<rect x="100" y="56" width="9" height="9" rx="2" fill="#161b22"/>
<rect x="100" y="68" width="9" height="9" rx="2" fill="#161b22"/>
<rect x="100" y="80" width="9" height="9" rx="2" fill="#0e4429"/>
<rect x="100" y="92" width="9" height="9" rx="2" fill="#0e4429"/>
<rect x="100" y="104" width="9" height="9" rx="2" fill="#0e4429"/>
<rect x="100" y="116" width="9" height="9" rx="2" fill="#0e4429"/>
<rect x="100" y="128" width="9" height="9" rx="2" fill="#161b22"/>
<rect x="112" y="56" width="9" height="9" rx="2" fill="#161b22"/>
<rect x="112" y="68" width="9" height="9" rx="2" fill="#161b22"/>
<rect x="112" y="80" width="9" height="9" rx="2" fill="#161b22"/>
<rect x="112" y="92" width="9" height="9" rx="2" fill="#161b22"/>
<rect x="112" y="104" width="9" height="9" rx="2" fill="#161b22"/>
<rect x="112" y="116" width="9" height="9" rx="2" fill="#0e4429"/>
<rect x="112" y="128" width="9" height="9" rx="2" fill="#0e4429"/>
<rect x="124" y="56" width="9" height="9" rx="2" fill="#161b22"/>
<rect x="124" y="68" width="9" height="9" rx="2" fill="#0e4429"/>
<rect x="124" y="80" width="9" height="9" rx="2" fill="#161b22"/>
<rect x="124" y="92" width="9" height="9" rx="2" fill="#161b22"/>
<rect x="124" y="104" width="9" height="9" rx="2" fill="#161b22"/>
<rect x="124" y="116" width="9" height="9" rx="2" fill="#161b22"/>
<rect x="124" y="128" width="9" height="9" rx="2" fill="#161b22"/>
<rect x="136" y="56" width="9" height="9" rx="2" fill="#161b22"/>
<rect x="136" y="68" width="9" height="9" rx="2" fill="#161b22"/>
<rect x="136" y="80" width="9" height="9" rx="2" fill="#161b22"/>
<rect x="136" y="92" width="9" height="9" rx="2" fill="#161b22"/>
<rect x="136" y="104" width="9" height="9" rx="2" fill="#161b22"/>
<rect x="136" y="116" width="9" height="9" rx="2" fill="#161b22"/>
<rect x="136" y="128" width="9" height="9" rx="2" fill="#161b22"/>
<rect x="148" y="56" width="9" height="9" rx="2" fill="#161b22"/>
<rect x="148" y="68" width="9" height="9" rx="2" fill="#161b22"/>
<rect x="148" y="80" width="9" height="9" rx="2" fill="#161b22"/>
<rect x="148" y="92" width="9" height="9" rx="2" fill="#0e4429"/>
<rect x="148" y="104" width="9" height="9" rx="2" fill="#0e4429"/>
<rect x="148" y="116" width="9" height="9" rx="2" fill="#0e4429"/>
<rect x="148" y="128" width="9" height="9" rx="2" fill="#161b22"/>
<rect x="160" y="56" width="9" height="9" rx="2" fill="#161b22"/>
<rect x="160" y="68" width="9" height="9" rx="2" fill="#161b22"/>
<rect x="160" y="80" width="9" height="9" rx="2" fill="#161b22"/>
<rect x="160" y="92" width="9" height="9" rx="2" fill="#161b22"/>
<rect x="160" y="104" width="9" height="9" rx="2" fill="#161b22"/>
<rect x="160" y="116" width="9" height="9" rx="2" fill="#161b22"/>
<rect x="160" y="128" width="9" height="9" rx="2" fill="#161b22"/>
<rect x="172" y="56" width="9" height="9" rx="2" fill="#161b22"/>
<rect x="172" y="68" width="9" height="9" rx="2" fill="#161b22"/>
<rect x="172" y="80" width="9" height="9" rx="2" fill="#161b22"/>
<rect x="172" y="92" width="9" height="9" rx="2" fill="#161b22"/>
<rect x="172" y="104" width="9" height="9" rx="2" fill="#161b22"/>
<rect x="172" y="116" width="9" height="9" rx="2" fill="#161b22"/>
<rect x="172" y="128" width="9" height="9" rx="2" fill="#161b22"/>
<rect x="184" y="56" width="9" height="9" rx="2" fill="#161b22"/>
<rect x="184" y="68" width="9" height="9" rx="2" fill="#161b22"/>
<rect x="184" y="80" width="9" height="9" rx="2" fill="#0e4429"/>
<rect x="184" y="92" width="9" height="9" rx="2" fill="#0e4429"/>
<rect x="184" y="104" width="9" height="9" rx="2" fill="#161b22"/>
<rect x="184" y="116" width="9" height="9" rx="2" fill="#0e4429"/>
<rect x="184" y="128" width="9" height="9" rx="2" fill="#161b22"/>
<rect x="196" y="56" width="9" height="9" rx="2" fill="#0e4429"/>
<rect x="196" y="68" width="9" height="9" rx="2" fill="#0e4429"/>
<rect x="196" y="80" width="9" height="9" rx="2" fill="#0e4429"/>
<rect x="196" y="92" width="9" height="9" rx="2" fill="#0e4429"/>
<rect x="196" y="104" width="9" height="9" rx="2" fill="#0e4429"/>
<rect x="196" y="116" width="9" height="9" rx="2" fill="#0e4429"/>
<rect x="196" y="128" width="9" height="9" rx="2" fill="#0e4429"/>
<rect x="208" y="56" width="9" height="9" rx="2" fill="#0e4429"/>
<rect x="208" y="68" width="9" height="9" rx="2" fill="#0e4429"/>
<rect x="208" y="80" width="9" height="9" rx="2" fill="#0e4429"/>
<rect x="208" y="92" width="9" height="9" rx="2" fill="#0e4429"/>
<rect x="208" y="104" width="9" height="9" rx="2" fill="#0e4429"/>
<rect x="208" y="116" width="9" height="9" rx="2" fill="#0e4429"/>
<rect x="208" y="128" width="9" height="9" rx="2" fill="#0e4429"/>
<rect x="220" y="56" width="9" height="9" rx="2" fill="#0e4429"/>
<rect x="220" y="68" width="9" height="9" rx="2" fill="#0e4429"/>
<rect x="220" y="80" width="9" height="9" rx="2" fill="#0e4429"/>
<rect x="220" y="92" width="9" height="9" rx="2" fill="#0e4429"/>
<rect x="220" y="104" width="9" height="9" rx="2" fill="#0e4429"/>
<rect x="220" y="116" width="9" height="9" rx="2" fill="#0e4429"/>
<rect x="220" y="128" width="9" height="9" rx="2" fill="#0e4429"/>
<rect x="232" y="56" width="9" height="9" rx="2" fill="#0e4429"/>
<rect x="232" y="68" width="9" height="9" rx="2" fill="#0e4429"/>
<rect x="232" y="80" width="9" height="9" rx="2" fill="#0e4429"/>
<rect x="232" y="92" width="9" height="9" rx="2" fill="#0e4429"/>
<rect x="232" y="104" width="9" height="9" rx="2" fill="#0e4429"/>
<rect x="232" y="116" width="9" height="9" rx="2" fill="#0e4429"/>
<rect x="232" y="128" width="9" height="9" rx="2" fill="#0e4429"/>
<rect x="244" y="56" width="9" height="9" rx="2" fill="#0e4429"/>
<rect x="244" y="68" width="9" height="9" rx="2" fill="#0e4429"/>
<rect x="244" y="80" width="9" height="9" rx="2" fill="#0e4429"/>
<rect x="244" y="92" width="9" height="9" rx="2" fill="#0e4429"/>
<rect x="244" y="104" width="9" height="9" rx="2" fill="#0e4429"/>
<rect x="244" y="116" width="9" height="9" rx="2" fill="#0e4429"/>
<rect x="244" y="128" width="9" height="9" rx="2" fill="#0e4429"/>
<rect x="256" y="56" width="9" height="9" rx="2" fill="#0e4429"/>
<rect x="256" y="68" width="9" height="9" rx="2" fill="#0e4429"/>
<rect x="256" y="80" width="9" height="9" rx="2" fill="#0e4429"/>
<rect x="256" y="92" width="9" height="9" rx="2" fill="#161b22"/>
<rect x="256" y="104" width="9" height="9" rx="2" fill="#161b22"/>
<rect x="256" y="116" width="9" height="9" rx="2" fill="#161b22"/>
<rect x="256" y="128" width="9" height="9" rx="2" fill="#161b22"/>
<rect x="268" y="56" width="9" height="9" rx="2" fill="#161b22"/>
<rect x="268" y="68" width="9" height="9" rx="2" fill="#161b22"/>
<rect x="268" y="80" width="9" height="9" rx="2" fill="#161b22"/>
<rect x="268" y="92" width="9" height="9" rx="2" fill="#161b22"/>
<rect x="268" y="104" width="9" height="9" rx="2" fill="#0e4429"/>
<rect x="268" y="116" width="9" height="9" rx="2" fill="#0e4429"/>
<rect x="268" y="128" width="9" height="9" rx="2" fill="#161b22"/>
<rect x="280" y="56" width="9" height="9" rx="2" fill="#161b22"/>
<rect x="280" y="68" width="9" height="9" rx="2" fill="#0e4429"/>
<rect x="280" y="80" width="9" height="9" rx="2" fill="#0e4429"/>
<rect x="280" y="92" width="9" height="9" rx="2" fill="#0e4429"/>
<rect x="280" y="104" width="9" height="9" rx="2" fill="#0e4429"/>
<rect x="280" y="116" width="9" height="9" rx="2" fill="#0e4429"/>
<rect x="280" y="128" width="9" height="9" rx="2" fill="#0e4429"/>
<rect x="292" y="56" width="9" height="9" rx="2" fill="#0e4429"/>
<rect x="292" y="68" width="9" height="9" rx="2" fill="#0e4429"/>
<rect x="292" y="80" width="9" height="9" rx="2" fill="#0e4429"/>
<rect x="292" y="92" width="9" height="9" rx="2" fill="#0e4429"/>
<rect x="292" y="104" width="9" height="9" rx="2" fill="#0e4429"/>
<rect x="292" y="116" width="9" height="9" rx="2" fill="#0e4429"/>
<rect x="292" y="128" width="9" height="9" rx="2" fill="#0e4429"/>
<rect x="304" y="56" width="9" height="9" rx="2" fill="#0e4429"/>
<rect x="304" y="68" width="9" height="9" rx="2" fill="#0e4429"/>
<rect x="304" y="80" width="9" height="9" rx="2" fill="#0e4429"/>
<rect x="304" y="92" width="9" height="9" rx="2" fill="#0e4429"/>
<rect x="304" y="104" width="9" height="9" rx="2" fill="#0e4429"/>
<rect x="304" y="116" width="9" height="9" rx="2" fill="#0e4429"/>
<rect x="304" y="128" width="9" height="9" rx="2" fill="#0e4429"/>
<rect x="316" y="56" width="9" height="9" rx="2" fill="#0e4429"/>
<rect x="316" y="68" width="9" height="9" rx="2" fill="#0e4429"/>
<rect x="316" y="80" width="9" height="9" rx="2" fill="#0e4429"/>
<rect x="316" y="92" width="9" height="9" rx="2" fill="#0e4429"/>
<rect x="316" y="104" width="9" height="9" rx="2" fill="#0e4429"/>
<rect x="316" y="116" width="9" height="9" rx="2" fill="#0e4429"/>
<rect x="316" y="128" width="9" height="9" rx="2" fill="#0e4429"/>
<rect x="328" y="56" width="9" height="9" rx="2" fill="#161b22"/>
<rect x="328" y="68" width="9" height="9" rx="2" fill="#161b22"/>
<rect x="328" y="80" width="9" height="9" rx="2" fill="#161b22"/>
<rect x="328" y="92" width="9" height="9" rx="2" fill="#0e4429"/>
<rect x="328" y="104" width="9" height="9" rx="2" fill="#0e4429"/>
<rect x="328" y="116" width="9" height="9" rx="2" fill="#0e4429"/>
<rect x="328" y="128" width="9" height="9" rx="2" fill="#0e4429"/>
<rect x="340" y="56" width="9" height="9" rx="2" fill="#0e4429"/>
<rect x="340" y="68" width="9" height="9" rx="2" fill="#0e4429"/>
<rect x="340" y="80" width="9" height="9" rx="2" fill="#0e4429"/>
<rect x="340" y="92" width="9" height="9" rx="2" fill="#0e4429"/>
<rect x="340" y="104" width="9" height="9" rx="2" fill="#0e4429"/>
<rect x="340" y="116" width="9" height="9" rx="2" fill="#0e4429"/>
<rect x="340" y="128" width="9" height="9" rx="2" fill="#0e4429"/>
<rect x="352" y="56" width="9" height="9" rx="2" fill="#0e4429"/>
<rect x="352" y="68" width="9" height="9" rx="2" fill="#0e4429"/>
<rect x="352" y="80" width="9" height="9" rx="2" fill="#0e4429"/>
<rect x="352" y="92" width="9" height="9" rx="2" fill="#0e4429"/>
<rect x="352" y="104" width="9" height="9" rx="2" fill="#0e4429"/>
<rect x="352" y="116" width="9" height="9" rx="2" fill="#0e4429"/>
<rect x="352" y="128" width="9" height="9" rx="2" fill="#0e4429"/>
<rect x="364" y="56" width="9" height="9" rx="2" fill="#0e4429"/>
<rect x="364" y="68" width="9" height="9" rx="2" fill="#0e4429"/>
<rect x="364" y="80" width="9" height="9" rx="2" fill="#0e4429"/>
<rect x="364" y="92" width="9" height="9" rx="2" fill="#0e4429"/>
<rect x="364" y="104" width="9" height="9" rx="2" fill="#0e4429"/>
<rect x="364" y="116" width="9" height="9" rx="2" fill="#0e4429"/>
<rect x="364" y="128" width="9" height="9" rx="2" fill="#0e4429"/>
<rect x="376" y="56" width="9" height="9" rx="2" fill="#0e4429"/>
<rect x="376" y="68" width="9" height="9" rx="2" fill="#0e4429"/>
<rect x="376" y="80" width="9" height="9" rx="2" fill="#161b22"/>
<rect x="376" y="92" width="9" height="9" rx="2" fill="#161b22"/>
<rect x="376" y="104" width="9" height="9" rx="2" fill="#0e4429"/>
<rect x="376" y="116" width="9" height="9" rx="2" fill="#0e4429"/>
<rect x="376" y="128" width="9" height="9" rx="2" fill="#0e4429"/>
<rect x="388" y="56" width="9" height="9" rx="2" fill="#0e4429"/>
<rect x="388" y="68" width="9" height="9" rx="2" fill="#0e4429"/>
<rect x="388" y="80" width="9" height="9" rx="2" fill="#0e4429"/>
<rect x="388" y="92" width="9" height="9" rx="2" fill="#006d32"/>
<rect x="388" y="104" width="9" height="9" rx="2" fill="#39d353"/>
<rect x="388" y="116" width="9" height="9" rx="2" fill="#0e4429"/>
<rect x="388" y="128" width="9" height="9" rx="2" fill="#0e4429"/>
<rect x="400" y="56" width="9" height="9" rx="2" fill="#0e4429"/>
<rect x="400" y="68" width="9" height="9" rx="2" fill="#0e4429"/>
<rect x="400" y="80" width="9" height="9" rx="2" fill="#006d32"/>
<rect x="400" y="92" width="9" height="9" rx="2" fill="#0e4429"/>
<rect x="400" y="104" width="9" height="9" rx="2" fill="#161b22"/>
<rect x="400" y="116" width="9" height="9" rx="2" fill="#161b22"/>
<rect x="400" y="128" width="9" height="9" rx="2" fill="#0e4429"/>
<rect x="412" y="56" width="9" height="9" rx="2" fill="#0e4429"/>
<rect x="412" y="68" width="9" height="9" rx="2" fill="#006d32"/>
<rect x="412" y="80" width="9" height="9" rx="2" fill="#006d32"/>
<rect x="412" y="92" width="9" height="9" rx="2" fill="#0e4429"/>
<rect x="412" y="104" width="9" height="9" rx="2" fill="#0e4429"/>
<rect x="412" y="116" width="9" height="9" rx="2" fill="#0e4429"/>
<rect x="412" y="128" width="9" height="9" rx="2" fill="#0e4429"/>
<rect x="424" y="56" width="9" height="9" rx="2" fill="#0e4429"/>
<rect x="424" y="68" width="9" height="9" rx="2" fill="#0e4429"/>
<rect x="424" y="80" width="9" height="9" rx="2" fill="#0e4429"/>
<rect x="424" y="92" width="9" height="9" rx="2" fill="#006d32"/>
<rect x="424" y="104" width="9" height="9" rx="2" fill="#0e4429"/>
<rect x="424" y="116" width="9" height="9" rx="2" fill="#006d32"/>
<rect x="424" y="128" width="9" height="9" rx="2" fill="#0e4429"/>
<rect x="436" y="56" width="9" height="9" rx="2" fill="#006d32"/>
<rect x="436" y="68" width="9" height="9" rx="2" fill="#0e4429"/>
<rect x="436" y="80" width="9" height="9" rx="2" fill="#0e4429"/>
<rect x="436" y="92" width="9" height="9" rx="2" fill="#0e4429"/>
<rect x="436" y="104" width="9" height="9" rx="2" fill="#0e4429"/>
<rect x="436" y="116" width="9" height="9" rx="2" fill="#0e4429"/>
<rect x="436" y="128" width="9" height="9" rx="2" fill="#0e4429"/>
<rect x="448" y="56" width="9" height="9" rx="2" fill="#0e4429"/>
<rect x="448" y="68" width="9" height="9" rx="2" fill="#0e4429"/>
<rect x="448" y="80" width="9" height="9" rx="2" fill="#0e4429"/>
<rect x="448" y="92" width="9" height="9" rx="2" fill="#0e4429"/>
<rect x="448" y="104" width="9" height="9" rx="2" fill="#0e4429"/>
<rect x="448" y="116" width="9" height="9" rx="2" fill="#006d32"/>
<rect x="448" y="128" width="9" height="9" rx="2" fill="#006d32"/>
<rect x="460" y="56" width="9" height="9" rx="2" fill="#0e4429"/>
<rect x="460" y="68" width="9" height="9" rx="2" fill="#0e4429"/>
<rect x="460" y="80" width="9" height="9" rx="2" fill="#006d32"/>
<rect x="460" y="92" width="9" height="9" rx="2" fill="#0e4429"/>
<rect x="460" y="104" width="9" height="9" rx="2" fill="#0e4429"/>
<rect x="460" y="116" width="9" height="9" rx="2" fill="#0e4429"/>
<rect x="460" y="128" width="9" height="9" rx="2" fill="#0e4429"/>
<rect x="472" y="56" width="9" height="9" rx="2" fill="#0e4429"/>
<rect x="472" y="68" width="9" height="9" rx="2" fill="#006d32"/>
<rect x="472" y="80" width="9" height="9" rx="2" fill="#0e4429"/>
<rect x="472" y="92" width="9" height="9" rx="2" fill="#0e4429"/>
<rect x="472" y="104" width="9" height="9" rx="2" fill="#0e4429"/>
<rect x="472" y="116" width="9" height="9" rx="2" fill="#0e4429"/>
<rect x="472" y="128" width="9" height="9" rx="2" fill="#0e4429"/>
<rect x="484" y="56" width="9" height="9" rx="2" fill="#0e4429"/>
<rect x="484" y="68" width="9" height="9" rx="2" fill="#0e4429"/>
<rect x="484" y="80" width="9" height="9" rx="2" fill="#0e4429"/>
<rect x="484" y="92" width="9" height="9" rx="2" fill="#0e4429"/>
<rect x="484" y="104" width="9" height="9" rx="2" fill="#161b22"/>
<rect x="484" y="116" width="9" height="9" rx="2" fill="#161b22"/>
<rect x="484" y="128" width="9" height="9" rx="2" fill="#0e4429"/>
<rect x="496" y="56" width="9" height="9" rx="2" fill="#0e4429"/>
<rect x="496" y="68" width="9" height="9" rx="2" fill="#0e4429"/>
<rect x="496" y="80" width="9" height="9" rx="2" fill="#0e4429"/>
<rect x="496" y="92" width="9" height="9" rx="2" fill="#0e4429"/>
<rect x="496" y="104" width="9" height="9" rx="2" fill="#0e4429"/>
<rect x="496" y="116" width="9" height="9" rx="2" fill="#0e4429"/>
<rect x="496" y="128" width="9" height="9" rx="2" fill="#0e4429"/>
<rect x="508" y="56" width="9" height="9" rx="2" fill="#0e4429"/>
<rect x="508" y="68" width="9" height="9" rx="2" fill="#0e4429"/>
<rect x="508" y="80" width="9" height="9" rx="2" fill="#006d32"/>
<rect x="508" y="92" width="9" height="9" rx="2" fill="#0e4429"/>
<rect x="508" y="104" width="9" height="9" rx="2" fill="#0e4429"/>
<rect x="508" y="116" width="9" height="9" rx="2" fill="#0e4429"/>
<rect x="508" y="128" width="9" height="9" rx="2" fill="#0e4429"/>
<rect x="520" y="56" width="9" height="9" rx="2" fill="#0e4429"/>
<rect x="520" y="68" width="9" height="9" rx="2" fill="#0e4429"/>
<rect x="520" y="80" width="9" height="9" rx="2" fill="#0e4429"/>
<rect x="520" y="92" width="9" height="9" rx="2" fill="#0e4429"/>
<rect x="520" y="104" width="9" height="9" rx="2" fill="#0e4429"/>
<rect x="520" y="116" width="9" height="9" rx="2" fill="#0e4429"/>
<rect x="520" y="128" width="9" height="9" rx="2" fill="#0e4429"/>
<rect x="532" y="56" width="9" height="9" rx="2" fill="#0e4429"/>
<rect x="532" y="68" width="9" height="9" rx="2" fill="#0e4429"/>
<rect x="532" y="80" width="9" height="9" rx="2" fill="#0e4429"/>
<rect x="532" y="92" width="9" height="9" rx="2" fill="#0e4429"/>
<rect x="532" y="104" width="9" height="9" rx="2" fill="#161b22"/>
<rect x="532" y="116" width="9" height="9" rx="2" fill="#0e4429"/>
<rect x="532" y="128" width="9" height="9" rx="2" fill="#161b22"/>
<rect x="544" y="56" width="9" height="9" rx="2" fill="#0e4429"/>
<rect x="544" y="68" width="9" height="9" rx="2" fill="#0e4429"/>
<rect x="544" y="80" width="9" height="9" rx="2" fill="#0e4429"/>
<rect x="544" y="92" width="9" height="9" rx="2" fill="#0e4429"/>
<rect x="544" y="104" width="9" height="9" rx="2" fill="#0e4429"/>
<rect x="544" y="116" width="9" height="9" rx="2" fill="#161b22"/>
<rect x="544" y="128" width="9" height="9" rx="2" fill="#0e4429"/>
<rect x="556" y="56" width="9" height="9" rx="2" fill="#0e4429"/>
<rect x="556" y="68" width="9" height="9" rx="2" fill="#0e4429"/>
<rect x="556" y="80" width="9" height="9" rx="2" fill="#0e4429"/>
<rect x="556" y="92" width="9" height="9" rx="2" fill="#0e4429"/>
<rect x="556" y="104" width="9" height="9" rx="2" fill="#0e4429"/>
<rect x="556" y="116" width="9" height="9" rx="2" fill="#006d32"/>
<rect x="556" y="128" width="9" height="9" rx="2" fill="#0e4429"/>
<rect x="568" y="56" width="9" height="9" rx="2" fill="#0e4429"/>
<rect x="568" y="68" width="9" height="9" rx="2" fill="#0e4429"/>
<rect x="568" y="80" width="9" height="9" rx="2" fill="#0e4429"/>
<rect x="568" y="92" width="9" height="9" rx="2" fill="#0e4429"/>
<rect x="568" y="104" width="9" height="9" rx="2" fill="#0e4429"/>
<rect x="568" y="116" width="9" height="9" rx="2" fill="#006d32"/>
<rect x="568" y="128" width="9" height="9" rx="2" fill="#0e4429"/>
<rect x="580" y="56" width="9" height="9" rx="2" fill="#0e4429"/>
<rect x="580" y="68" width="9" height="9" rx="2" fill="#0e4429"/>
<rect x="580" y="80" width="9" height="9" rx="2" fill="#0e4429"/>
<rect x="580" y="92" width="9" height="9" rx="2" fill="#0e4429"/>
<rect x="580" y="104" width="9" height="9" rx="2" fill="#0e4429"/>
<rect x="580" y="116" width="9" height="9" rx="2" fill="#0e4429"/>
<rect x="580" y="128" width="9" height="9" rx="2" fill="#006d32"/>
<rect x="592" y="56" width="9" height="9" rx="2" fill="#006d32"/>
<rect x="592" y="68" width="9" height="9" rx="2" fill="#0e4429"/>
<rect x="592" y="80" width="9" height="9" rx="2" fill="#0e4429"/>
<rect x="592" y="92" width="9" height="9" rx="2" fill="#006d32"/>
<rect x="592" y="104" width="9" height="9" rx="2" fill="#0e4429"/>
<rect x="592" y="116" width="9" height="9" rx="2" fill="#006d32"/>
<rect x="592" y="128" width="9" height="9" rx="2" fill="#0e4429"/>
<rect x="604" y="56" width="9" height="9" rx="2" fill="#0e4429"/>
<rect x="604" y="68" width="9" height="9" rx="2" fill="#0e4429"/>
<rect x="604" y="80" width="9" height="9" rx="2" fill="#0e4429"/>
<rect x="604" y="92" width="9" height="9" rx="2" fill="#0e4429"/>
<rect x="604" y="104" width="9" height="9" rx="2" fill="#0e4429"/>
<rect x="604" y="116" width="9" height="9" rx="2" fill="#26a641"/>
<rect x="604" y="128" width="9" height="9" rx="2" fill="#0e4429"/>
<rect x="616" y="56" width="9" height="9" rx="2" fill="#0e4429"/>
<rect x="616" y="68" width="9" height="9" rx="2" fill="#006d32"/>
<rect x="616" y="80" width="9" height="9" rx="2" fill="#006d32"/>
<rect x="616" y="92" width="9" height="9" rx="2" fill="#006d32"/>
<rect x="616" y="104" width="9" height="9" rx="2" fill="#006d32"/>
<rect x="616" y="116" width="9" height="9" rx="2" fill="#0e4429"/>
<rect x="616" y="128" width="9" height="9" rx="2" fill="#0e4429"/>
<rect x="628" y="56" width="9" height="9" rx="2" fill="#0e4429"/>
<rect x="628" y="68" width="9" height="9" rx="2" fill="#0e4429"/>
<rect x="628" y="80" width="9" height="9" rx="2" fill="#0e4429"/>
<rect x="628" y="92" width="9" height="9" rx="2" fill="#006d32"/>
<rect x="628" y="104" width="9" height="9" rx="2" fill="#0e4429"/>
<rect x="628" y="116" width="9" height="9" rx="2" fill="#006d32"/>
<rect x="628" y="128" width="9" height="9" rx="2" fill="#0e4429"/>
<rect x="640" y="56" width="9" height="9" rx="2" fill="#0e4429"/>
<rect x="640" y="68" width="9" height="9" rx="2" fill="#006d32"/>
<rect x="640" y="80" width="9" height="9" rx="2" fill="#0e4429"/>
<rect x="640" y="92" width="9" height="9" rx="2" fill="#006d32"/>
<rect x="640" y="104" width="9" height="9" rx="2" fill="#006d32"/>
<rect x="640" y="116" width="9" height="9" rx="2" fill="#26a641"/>
<rect x="640" y="128" width="9" height="9" rx="2" fill="#0e4429"/>
<rect x="652" y="56" width="9" height="9" rx="2" fill="#0e4429"/>
<rect x="652" y="68" width="9" height="9" rx="2" fill="#0e4429"/>
<rect x="652" y="80" width="9" height="9" rx="2" fill="#0e4429"/>
<rect x="652" y="92" width="9" height="9" rx="2" fill="#0e4429"/>
<rect x="652" y="104" width="9" height="9" rx="2" fill="#0e4429"/>
<rect x="652" y="116" width="9" height="9" rx="2" fill="#0e4429"/>
</svg>
